<svg width="197" height="131" viewBox="0 0 197 131" fill="none" xmlns="http://www.w3.org/2000/svg">
<path d="M16.5493 62V69" stroke="#97AF79" stroke-width="4" stroke-linecap="round" stroke-linejoin="round"/>
<path d="M16.5493 80V89" stroke="#97AF79" stroke-width="4" stroke-linecap="round" stroke-linejoin="round"/>
<path d="M22.1689 75H29.6616" stroke="#97AF79" stroke-width="4" stroke-linecap="round" stroke-linejoin="round"/>
<path d="M2.50049 75H9.99317" stroke="#97AF79" stroke-width="4" stroke-linecap="round" stroke-linejoin="round"/>
<path d="M181.387 2V9" stroke="#97AF79" stroke-width="4" stroke-linecap="round" stroke-linejoin="round"/>
<path d="M181.387 20V29" stroke="#97AF79" stroke-width="4" stroke-linecap="round" stroke-linejoin="round"/>
<path d="M187.007 15L194.5 15" stroke="#97AF79" stroke-width="4" stroke-linecap="round" stroke-linejoin="round"/>
<path d="M167.338 15L174.831 15" stroke="#97AF79" stroke-width="4" stroke-linecap="round" stroke-linejoin="round"/>
<path d="M169.528 41.1484C154.86 27.4102 135.086 27.5308 121.613 30.3026L92.604 108.393C110.857 109.26 135.303 117.552 141.496 122.492L169.528 41.1484Z" stroke="#97AF79" stroke-width="4" stroke-linecap="round" stroke-linejoin="round"/>
<path d="M83.8031 110.924C85.9761 113.816 91.8214 118.733 97.8188 115.262M72.7208 18.4055C86.1934 15.6337 106.619 15.841 121.287 29.5793L92.2777 108.754C86.0847 103.813 61.9645 97.3633 43.7114 96.4957L72.7208 18.4055Z" stroke="#97AF79" stroke-width="4" stroke-linecap="round" stroke-linejoin="round"/>
<path d="M98.4702 115.272C102.353 114.158 115.682 114.9 137.941 126.782L142.147 128.639" stroke="#97AF79" stroke-width="4" stroke-linecap="round" stroke-linejoin="round"/>
<path d="M142.799 129L170.504 48.7406L167.897 47.2944" stroke="#97AF79" stroke-width="4" stroke-linecap="round" stroke-linejoin="round"/>
<path d="M45.0156 100.801C56.4238 101.765 80.0877 105.067 83.4775 110.562" stroke="#97AF79" stroke-width="4" stroke-linecap="round" stroke-linejoin="round"/>
</svg>
