<svg width="159" height="149" viewBox="0 0 159 149" fill="none" xmlns="http://www.w3.org/2000/svg">
<path d="M89 55.5C86.5 83.3333 68.9 140.7 16.5 145.5M99.5 69C96.3333 73.1667 89.1 81.5 85.5 81.5M108.501 3C128.167 39.3333 129.5 126.5 58.5005 132C30.5005 129.667 1.30051 100.6 108.501 3Z" stroke="#97AF79" stroke-width="6" stroke-linecap="round" stroke-linejoin="round"/>
<path d="M67.0001 87C66.6668 93.1667 67.1001 105.2 71.5001 104" stroke="#97AF79" stroke-width="6" stroke-linecap="round" stroke-linejoin="round"/>
<path d="M143 118.5V125.5" stroke="#97AF79" stroke-width="4" stroke-linecap="round" stroke-linejoin="round"/>
<path d="M143 136.5V145.5" stroke="#97AF79" stroke-width="4" stroke-linecap="round" stroke-linejoin="round"/>
<path d="M149 131.5H157" stroke="#97AF79" stroke-width="4" stroke-linecap="round" stroke-linejoin="round"/>
<path d="M128 131.5H136" stroke="#97AF79" stroke-width="4" stroke-linecap="round" stroke-linejoin="round"/>
<path d="M17 5.5V12.5" stroke="#97AF79" stroke-width="4" stroke-linecap="round" stroke-linejoin="round"/>
<path d="M17 23.5V32.5" stroke="#97AF79" stroke-width="4" stroke-linecap="round" stroke-linejoin="round"/>
<path d="M23 18.5H31" stroke="#97AF79" stroke-width="4" stroke-linecap="round" stroke-linejoin="round"/>
<path d="M2 18.5H10" stroke="#97AF79" stroke-width="4" stroke-linecap="round" stroke-linejoin="round"/>
</svg>
