<svg width="169" height="166" viewBox="0 0 169 166" fill="none" xmlns="http://www.w3.org/2000/svg">
<path d="M88.5 3.5C105.026 3.5 118.5 17.1126 118.5 34C118.5 50.8874 105.026 64.5 88.5 64.5C71.9738 64.5 58.5 50.8874 58.5 34C58.5 17.1126 71.9738 3.5 88.5 3.5Z" stroke="#97AF79" stroke-width="6"/>
<path d="M126.5 162.992H49.5V97.9919C82 61.5566 117 81.5559 126.5 97.9919V130.492V162.992Z" stroke="#97AF79" stroke-width="6" stroke-linecap="round" stroke-linejoin="round"/>
<path d="M152.5 40.5V47.5" stroke="#97AF79" stroke-width="4" stroke-linecap="round" stroke-linejoin="round"/>
<path d="M152.5 58.5V67.5" stroke="#97AF79" stroke-width="4" stroke-linecap="round" stroke-linejoin="round"/>
<path d="M158.5 53.5H166.5" stroke="#97AF79" stroke-width="4" stroke-linecap="round" stroke-linejoin="round"/>
<path d="M137.5 53.5H145.5" stroke="#97AF79" stroke-width="4" stroke-linecap="round" stroke-linejoin="round"/>
<path d="M17.5 73.5V80.5" stroke="#97AF79" stroke-width="4" stroke-linecap="round" stroke-linejoin="round"/>
<path d="M17.5 91.5V100.5" stroke="#97AF79" stroke-width="4" stroke-linecap="round" stroke-linejoin="round"/>
<path d="M23.5 86.5H31.5" stroke="#97AF79" stroke-width="4" stroke-linecap="round" stroke-linejoin="round"/>
<path d="M2.5 86.5H10.5" stroke="#97AF79" stroke-width="4" stroke-linecap="round" stroke-linejoin="round"/>
<path d="M97.1107 91.5H80.6221V106.544H64.5V126.746H80.6221V140.5H97.1107V126.746H112.5V106.544H97.1107V91.5Z" stroke="#97AF79" stroke-width="4" stroke-linecap="round" stroke-linejoin="round"/>
</svg>
